<svg viewBox="0 0 206 42" xmlns="http://www.w3.org/2000/svg" data-logo="logo">
        <g style="opacity: 1;" transform="translate(0, 1) rotate(0)" id="logogram"><path fill="#3902FF" d="M43 0C50.1797 6.44277e-07 56 5.8203 56 13C56 20.1797 50.1797 26 43 26H34.4844L48.4844 40H31.5156L15.7578 24.2422C14.672 23.1564 14 21.6569 14 20C14 16.6863 16.6863 14 20 14H43C43.5523 14 44 13.5523 44 13C44 12.4477 43.5523 12 43 12H20C15.5817 12 12 15.5817 12 20C12 22.3901 13.0482 24.5347 14.71 26H14.6875L28.6875 40H20C8.95431 40 0 31.0457 0 20C0 8.95431 8.9543 0 20 0H43Z"></path><path fill="#3902FF" d="M56 28V40H51.3125L39.3125 28H56Z"></path></g>
        <g style="opacity: 1;" transform="translate(62, 8.5)" id="logotype"><path d="M19.65 25.45L19.65 25.45Q16.92 25.45 14.59 24.48Q12.27 23.50 10.53 21.75Q8.80 19.99 7.84 17.70Q6.88 15.41 6.88 12.78L6.88 12.78Q6.88 10.16 7.80 7.85Q8.73 5.54 10.43 3.79Q12.13 2.04 14.47 1.04Q16.82 0.04 19.65 0.04L19.65 0.04Q22.66 0.04 24.81 0.99Q26.97 1.93 28.61 3.89L28.61 3.89L25.15 6.90Q22.94 4.59 19.65 4.59L19.65 4.59Q17.30 4.59 15.57 5.71Q13.84 6.83 12.89 8.69Q11.95 10.54 11.95 12.78L11.95 12.78Q11.95 15.02 12.89 16.86Q13.84 18.70 15.59 19.80Q17.34 20.91 19.76 20.91L19.76 20.91Q21.54 20.91 22.91 20.31Q24.27 19.71 25.36 18.52L25.36 18.52L28.93 21.57Q27.53 23.25 25.20 24.35Q22.87 25.45 19.65 25.45ZM37.85 25.45L37.85 25.45Q35.37 25.45 33.32 24.18Q31.27 22.90 30.06 20.75Q28.86 18.59 28.86 15.97L28.86 15.97Q28.86 14.01 29.55 12.28Q30.26 10.54 31.48 9.23Q32.70 7.92 34.33 7.17Q35.96 6.41 37.85 6.41L37.85 6.41Q40.23 6.41 41.56 7.31Q42.89 8.20 43.63 9.67L43.63 9.67L43.63 6.80L48.32 6.80L48.32 25L43.73 25L43.73 22.02Q43.00 23.57 41.65 24.51Q40.30 25.45 37.85 25.45ZM38.62 21.18L38.62 21.18Q40.20 21.18 41.33 20.47Q42.47 19.75 43.10 18.56Q43.73 17.37 43.73 15.97L43.73 15.97Q43.73 14.53 43.10 13.34Q42.47 12.15 41.33 11.42Q40.20 10.68 38.62 10.68L38.62 10.68Q37.12 10.68 35.98 11.40Q34.84 12.12 34.21 13.31Q33.58 14.50 33.58 15.93L33.58 15.93Q33.58 17.30 34.21 18.51Q34.84 19.71 35.98 20.45Q37.12 21.18 38.62 21.18ZM55.84 25L51.12 25L51.12 6.80L55.70 6.80L55.70 10.26Q56.16 8.30 57.56 7.27Q58.96 6.24 61.34 6.38L61.34 6.38L61.34 10.82L60.67 10.82Q58.64 10.82 57.24 12.12Q55.84 13.41 55.84 15.69L55.84 15.69L55.84 25ZM70.75 25.45L70.75 25.45Q67.95 25.45 65.82 24.16Q63.68 22.86 62.51 20.71Q61.34 18.56 61.34 15.93L61.34 15.93Q61.34 13.31 62.56 11.12Q63.79 8.93 65.90 7.64Q68.02 6.34 70.75 6.34L70.75 6.34Q73.48 6.34 75.56 7.64Q77.65 8.93 78.82 11.12Q79.99 13.31 79.99 15.93L79.99 15.93Q79.99 16.32 79.96 16.74Q79.92 17.16 79.85 17.61L79.85 17.61L66.23 17.61Q66.62 19.23 67.79 20.24Q68.97 21.25 70.75 21.25L70.75 21.25Q72.29 21.25 73.43 20.55Q74.57 19.86 75.20 18.80L75.20 18.80L78.87 21.57Q77.79 23.29 75.62 24.37Q73.45 25.45 70.75 25.45ZM70.68 10.40L70.68 10.40Q69 10.40 67.81 11.42Q66.62 12.43 66.23 14.08L66.23 14.08L75.23 14.08Q74.84 12.57 73.64 11.49Q72.43 10.40 70.68 10.40ZM90.52 25.45L90.52 25.45Q87.72 25.45 85.59 24.16Q83.45 22.86 82.28 20.71Q81.11 18.56 81.11 15.93L81.11 15.93Q81.11 13.31 82.33 11.12Q83.56 8.93 85.68 7.64Q87.80 6.34 90.52 6.34L90.52 6.34Q93.25 6.34 95.34 7.64Q97.42 8.93 98.59 11.12Q99.77 13.31 99.77 15.93L99.77 15.93Q99.77 16.32 99.73 16.74Q99.69 17.16 99.63 17.61L99.63 17.61L86.01 17.61Q86.39 19.23 87.57 20.24Q88.74 21.25 90.52 21.25L90.52 21.25Q92.06 21.25 93.20 20.55Q94.34 19.86 94.97 18.80L94.97 18.80L98.64 21.57Q97.56 23.29 95.39 24.37Q93.22 25.45 90.52 25.45ZM90.45 10.40L90.45 10.40Q88.77 10.40 87.58 11.42Q86.39 12.43 86.01 14.08L86.01 14.08L95.00 14.08Q94.62 12.57 93.41 11.49Q92.20 10.40 90.45 10.40ZM106.56 25L101.83 25L101.83 6.80L106.42 6.80L106.42 10.26Q106.87 8.30 108.27 7.27Q109.67 6.24 112.05 6.38L112.05 6.38L112.05 10.82L111.39 10.82Q109.36 10.82 107.96 12.12Q106.56 13.41 106.56 15.69L106.56 15.69L106.56 25ZM118.35 25L113.63 25L113.63 6.80L118.21 6.80L118.21 10.26Q118.67 8.30 120.07 7.27Q121.47 6.24 123.85 6.38L123.85 6.38L123.85 10.82L123.18 10.82Q121.15 10.82 119.75 12.12Q118.35 13.41 118.35 15.69L118.35 15.69L118.35 25ZM132.84 25.45L132.84 25.45Q130.36 25.45 128.31 24.18Q126.26 22.90 125.05 20.75Q123.85 18.59 123.85 15.97L123.85 15.97Q123.85 14.01 124.55 12.28Q125.25 10.54 126.47 9.23Q127.70 7.92 129.32 7.17Q130.95 6.41 132.84 6.41L132.84 6.41Q135.22 6.41 136.55 7.31Q137.88 8.20 138.62 9.67L138.62 9.67L138.62 6.80L143.31 6.80L143.31 25L138.72 25L138.72 22.02Q137.99 23.57 136.64 24.51Q135.29 25.45 132.84 25.45ZM133.61 21.18L133.61 21.18Q135.19 21.18 136.32 20.47Q137.46 19.75 138.09 18.56Q138.72 17.37 138.72 15.97L138.72 15.97Q138.72 14.53 138.09 13.34Q137.46 12.15 136.32 11.42Q135.19 10.68 133.61 10.68L133.61 10.68Q132.11 10.68 130.97 11.40Q129.83 12.12 129.20 13.31Q128.57 14.50 128.57 15.93L128.57 15.93Q128.57 17.30 129.20 18.51Q129.83 19.71 130.97 20.45Q132.11 21.18 133.61 21.18Z" fill="#000000"></path></g>
        
      </svg>