
      <svg data-logo="logo" xmlns="http://www.w3.org/2000/svg" viewBox="0 0 138 27">
        <g id="logogram" transform="translate(0, 13.5) rotate(0) "></g>
        <g id="logotype" transform="translate(0, 1)"><path fill="#000000" d="M13.65 25.45L13.65 25.45Q10.92 25.45 8.59 24.48Q6.27 23.50 4.53 21.75Q2.80 19.99 1.84 17.70Q0.88 15.41 0.88 12.78L0.88 12.78Q0.88 10.16 1.80 7.85Q2.73 5.54 4.43 3.79Q6.13 2.04 8.47 1.04Q10.82 0.04 13.65 0.04L13.65 0.04Q16.66 0.04 18.81 0.99Q20.97 1.93 22.61 3.89L22.61 3.89L19.15 6.90Q16.94 4.59 13.65 4.59L13.65 4.59Q11.31 4.59 9.57 5.71Q7.84 6.83 6.90 8.69Q5.95 10.54 5.95 12.78L5.95 12.78Q5.95 15.02 6.90 16.86Q7.84 18.70 9.59 19.80Q11.34 20.91 13.76 20.91L13.76 20.91Q15.54 20.91 16.91 20.31Q18.27 19.71 19.36 18.52L19.36 18.52L22.93 21.57Q21.53 23.25 19.20 24.35Q16.87 25.45 13.65 25.45ZM31.85 25.45L31.85 25.45Q29.37 25.45 27.32 24.18Q25.27 22.90 24.06 20.75Q22.86 18.59 22.86 15.97L22.86 15.97Q22.86 14.01 23.55 12.28Q24.26 10.54 25.48 9.23Q26.71 7.92 28.33 7.17Q29.96 6.41 31.85 6.41L31.85 6.41Q34.23 6.41 35.56 7.31Q36.89 8.20 37.63 9.67L37.63 9.67L37.63 6.80L42.32 6.80L42.32 25L37.73 25L37.73 22.02Q37.00 23.57 35.65 24.51Q34.30 25.45 31.85 25.45ZM32.62 21.18L32.62 21.18Q34.20 21.18 35.33 20.47Q36.47 19.75 37.10 18.56Q37.73 17.37 37.73 15.97L37.73 15.97Q37.73 14.53 37.10 13.34Q36.47 12.15 35.33 11.42Q34.20 10.68 32.62 10.68L32.62 10.68Q31.12 10.68 29.98 11.40Q28.84 12.12 28.21 13.31Q27.58 14.50 27.58 15.93L27.58 15.93Q27.58 17.30 28.21 18.51Q28.84 19.71 29.98 20.45Q31.12 21.18 32.62 21.18ZM49.84 25L45.12 25L45.12 6.80L49.70 6.80L49.70 10.26Q50.16 8.30 51.56 7.27Q52.96 6.24 55.34 6.38L55.34 6.38L55.34 10.82L54.67 10.82Q52.64 10.82 51.24 12.12Q49.84 13.41 49.84 15.69L49.84 15.69L49.84 25ZM64.75 25.45L64.75 25.45Q61.95 25.45 59.82 24.16Q57.68 22.86 56.51 20.71Q55.34 18.56 55.34 15.93L55.34 15.93Q55.34 13.31 56.56 11.12Q57.79 8.93 59.90 7.64Q62.02 6.34 64.75 6.34L64.75 6.34Q67.48 6.34 69.56 7.64Q71.65 8.93 72.82 11.12Q73.99 13.31 73.99 15.93L73.99 15.93Q73.99 16.32 73.96 16.74Q73.92 17.16 73.85 17.61L73.85 17.61L60.24 17.61Q60.62 19.23 61.79 20.24Q62.97 21.25 64.75 21.25L64.75 21.25Q66.29 21.25 67.43 20.55Q68.57 19.86 69.20 18.80L69.20 18.80L72.87 21.57Q71.79 23.29 69.62 24.37Q67.45 25.45 64.75 25.45ZM64.68 10.40L64.68 10.40Q63.00 10.40 61.81 11.42Q60.62 12.43 60.24 14.08L60.24 14.08L69.23 14.08Q68.84 12.57 67.64 11.49Q66.43 10.40 64.68 10.40ZM84.52 25.45L84.52 25.45Q81.72 25.45 79.59 24.16Q77.45 22.86 76.28 20.71Q75.11 18.56 75.11 15.93L75.11 15.93Q75.11 13.31 76.33 11.12Q77.56 8.93 79.68 7.64Q81.80 6.34 84.52 6.34L84.52 6.34Q87.25 6.34 89.34 7.64Q91.42 8.93 92.59 11.12Q93.77 13.31 93.77 15.93L93.77 15.93Q93.77 16.32 93.73 16.74Q93.69 17.16 93.63 17.61L93.63 17.61L80.01 17.61Q80.39 19.23 81.57 20.24Q82.74 21.25 84.52 21.25L84.52 21.25Q86.06 21.25 87.20 20.55Q88.34 19.86 88.97 18.80L88.97 18.80L92.64 21.57Q91.56 23.29 89.39 24.37Q87.22 25.45 84.52 25.45ZM84.45 10.40L84.45 10.40Q82.77 10.40 81.58 11.42Q80.39 12.43 80.01 14.08L80.01 14.08L89.00 14.08Q88.62 12.57 87.41 11.49Q86.20 10.40 84.45 10.40ZM100.56 25L95.83 25L95.83 6.80L100.42 6.80L100.42 10.26Q100.87 8.30 102.27 7.27Q103.67 6.24 106.05 6.38L106.05 6.38L106.05 10.82L105.39 10.82Q103.36 10.82 101.96 12.12Q100.56 13.41 100.56 15.69L100.56 15.69L100.56 25ZM112.35 25L107.63 25L107.63 6.80L112.21 6.80L112.21 10.26Q112.67 8.30 114.07 7.27Q115.47 6.24 117.85 6.38L117.85 6.38L117.85 10.82L117.18 10.82Q115.15 10.82 113.75 12.12Q112.35 13.41 112.35 15.69L112.35 15.69L112.35 25ZM126.84 25.45L126.84 25.45Q124.36 25.45 122.31 24.18Q120.26 22.90 119.05 20.75Q117.85 18.59 117.85 15.97L117.85 15.97Q117.85 14.01 118.55 12.28Q119.25 10.54 120.47 9.23Q121.70 7.92 123.32 7.17Q124.95 6.41 126.84 6.41L126.84 6.41Q129.22 6.41 130.55 7.31Q131.88 8.20 132.62 9.67L132.62 9.67L132.62 6.80L137.31 6.80L137.31 25L132.72 25L132.72 22.02Q131.99 23.57 130.64 24.51Q129.29 25.45 126.84 25.45ZM127.61 21.18L127.61 21.18Q129.19 21.18 130.32 20.47Q131.46 19.75 132.09 18.56Q132.72 17.37 132.72 15.97L132.72 15.97Q132.72 14.53 132.09 13.34Q131.46 12.15 130.32 11.42Q129.19 10.68 127.61 10.68L127.61 10.68Q126.11 10.68 124.97 11.40Q123.83 12.12 123.20 13.31Q122.57 14.50 122.57 15.93L122.57 15.93Q122.57 17.30 123.20 18.51Q123.83 19.71 124.97 20.45Q126.11 21.18 127.61 21.18Z"/></g>
        
      </svg>
    